<?xml version="1.0" encoding="UTF-8"?>
<!DOCTYPE svg PUBLIC "-//W3C//DTD SVG 1.1//EN" "http://www.w3.org/Graphics/SVG/1.1/DTD/svg11.dtd">
<!-- Creator: CorelDRAW -->
<svg xmlns="http://www.w3.org/2000/svg" xml:space="preserve" width="5.63421in" height="8.7943in" version="1.1" style="shape-rendering:geometricPrecision; text-rendering:geometricPrecision; image-rendering:optimizeQuality; fill-rule:evenodd; clip-rule:evenodd"
viewBox="0 0 4831.89 7541.98"
 xmlns:xlink="http://www.w3.org/1999/xlink"
 xmlns:xodm="http://www.corel.com/coreldraw/odm/2003">
 <defs>
  <style type="text/css">
   <![CDATA[
    .str0 {stroke:#96C5CD;stroke-width:2.57;stroke-miterlimit:2.61313}
    .fil1 {fill:#093D5A}
    .fil3 {fill:#5C9C73}
    .fil2 {fill:#96C5CD}
    .fil4 {fill:#C5E9EB}
    .fil0 {fill:#093D5A;fill-rule:nonzero}
   ]]>
  </style>
 </defs>
 <g id="Layer_x0020_1">
  <metadata id="CorelCorpID_0Corel-Layer"/>
  <path class="fil0" d="M828.39 7541.98c6.97,0 13.13,-1.61 19.57,-5.63l112.29 -64.86c13.4,-7.77 20.37,-19.56 20.37,-35.37 0,-7.24 -1.61,-13.4 -5.36,-19.83l-71.56 -124.08c72.36,-64.59 124.08,-146.06 155.44,-243.88 21.17,-67.54 32.16,-138.82 32.16,-214.67 0,-75.85 -10.99,-147.13 -32.16,-214.67 -22.78,-72.9 -57.35,-136.14 -102.91,-190.28 -50.92,-60.57 -112.29,-106.13 -184.38,-136.95 -68.34,-28.94 -143.65,-43.95 -226.19,-43.95 -82.55,0 -157.85,15.01 -226.19,43.95 -72.09,30.82 -133.46,76.38 -184.38,136.95 -45.56,54.14 -80.13,117.38 -102.91,190.28 -21.17,67.54 -32.16,138.82 -32.16,214.67 0,75.84 10.99,147.13 32.16,214.67 22.78,72.09 57.35,135.34 102.91,189.48 50.92,60.57 112.29,106.93 184.38,137.75 68.34,28.94 143.65,43.95 226.19,43.95 61.91,0 120.06,-8.58 174.2,-25.19l73.97 127.84c6.97,13.4 18.76,19.83 34.57,19.83zm-282.74 -322.94c-109.08,0 -193.23,-42.34 -252.72,-127.03 -48.78,-68.87 -73.16,-154.9 -73.16,-258.35 0,-103.45 24.39,-189.48 73.16,-259.16 60.3,-83.88 144.45,-126.23 252.72,-126.23 108.27,0 192.42,42.35 252.72,126.23 48.78,69.68 73.17,156.51 73.17,259.16 0,102.64 -24.39,188.67 -73.17,258.35l-6.16 8.04 -95.95 -166.16c-8.58,-13.4 -19.56,-20.37 -33.5,-20.37 -7.24,0 -14.2,2.41 -21.44,6.17l-112.29 64.32c-13.13,8.58 -20.37,20.37 -20.37,35.37 0,6.97 1.61,13.13 5.63,19.57l101.3 173.93c-22.78,3.75 -45.56,6.17 -69.95,6.17z"/>
  <path id="_1" class="fil0" d="M2085.47 7402.08c21.98,0 40.2,-18.23 40.2,-40.2l0 -123.82c0,-21.97 -18.23,-40.2 -40.2,-40.2l-489.1 0 0 -266.93 443 0c22.51,0 39.93,-18.23 39.93,-40.2l0 -123.81c0,-21.98 -17.42,-40.2 -39.93,-40.2l-443 0 0 -258.89 489.1 0c21.98,0 40.2,-17.96 40.2,-39.93l0 -123.55c0,-21.71 -18.23,-39.13 -40.2,-39.13l-668.93 0c-21.97,0 -39.93,17.42 -39.93,39.13l0 1057.53c0,21.97 17.96,40.2 39.93,40.2l668.93 0z"/>
  <path id="_2" class="fil0" d="M2594.56 7402.08c21.98,0 39.93,-18.23 39.93,-40.2l0 -430.94 443 0c22.51,0 39.93,-18.23 39.93,-40.2l0 -123.81c0,-21.98 -17.42,-40.2 -39.93,-40.2l-443 0 0 -258.89 489.1 0c21.98,0 40.2,-17.96 40.2,-39.93l0 -123.55c0,-21.71 -18.23,-39.13 -40.2,-39.13l-668.93 0c-21.97,0 -39.93,17.42 -39.93,39.13l0 1057.53c0,21.97 17.96,40.2 39.93,40.2l139.9 0z"/>
  <path id="_3" class="fil0" d="M3610.18 7402.08c21.98,0 39.93,-18.23 39.93,-40.2l0 -1057.26c0,-21.97 -17.96,-39.4 -39.93,-39.4l-139.9 0c-21.97,0 -39.93,17.42 -39.93,39.4l0 1057.26c0,21.97 17.96,40.2 39.93,40.2l139.9 0z"/>
  <path id="_4" class="fil0" d="M4790.88 7402.08c15.81,0 27.6,-6.43 34.57,-19.83 4.02,-6.97 6.43,-13.13 6.43,-20.37 0,-6.97 -2.41,-13.4 -6.43,-19.57l-251.92 -438.18c80.67,-30.55 141.24,-81.47 180.63,-153.03 24.92,-46.36 37.52,-97.55 37.52,-152.76 0,-110.15 -52.53,-207.16 -143.65,-267.46 -66.73,-43.68 -144.45,-65.66 -234.23,-65.66l-385.65 0c-21.97,0 -39.93,17.42 -39.93,39.13l0 1057.53c0,21.97 17.96,40.2 39.93,40.2l140.7 0c21.98,0 39.13,-18.23 39.13,-40.2l0 -429.34 139.09 0 259.42 449.7c7.77,13.4 19.56,19.83 34.57,19.83l149.81 0zm-582.9 -673.75l0 -260.49 205.82 0c43.42,0 79.59,10.18 108.54,30.55 32.96,22.78 49.58,56.82 49.58,99.96 0,43.42 -16.62,76.65 -49.58,100.23 -28.95,19.56 -65.12,29.75 -108.54,29.75l-205.82 0z"/>
  <path class="fil1" d="M3024.6 1886.11c4.44,132.38 -83.59,40.78 -149.01,117.91 -43.92,51.78 -28.62,179.84 -28.58,248.35 0.13,203.87 -28.08,300.22 68.14,485.73 146.54,282.53 964.58,557.44 1023.44,1442.17 7.95,119.52 20.21,252.99 -6.05,372.56 -29.66,135.06 -21.8,173.31 -88.86,331.01 -108.38,254.89 -258.02,452.63 -472.63,626.16 -86.7,70.11 -238.81,159.38 -341.49,203.44 -135.24,58.03 -294.57,98.17 -440.8,113.07 -88.19,8.98 -374.21,-6.98 -490.79,-37.9 -243.2,-64.5 -527.71,-212.59 -705.1,-393.69 -318.32,-324.98 -492.14,-761 -455.24,-1219.93 10.79,-134.12 59.97,-325.47 115.72,-447.7 254.11,-557.1 782.28,-727.08 933.06,-1031.23 74.21,-149.68 53.96,-327.63 53.96,-497.29 0,-93.2 18.5,-156.13 -54.35,-223.33 -30.37,-8.96 -22.68,-9.74 -59.13,-7.51 -89.9,-5.68 -61.82,-37.25 -67.86,-117.09l1165.45 0.55 0.14 34.71zm-1712.96 3696.76c212.04,208.36 622.73,388.36 958.1,426.72 403.41,46.14 905.67,-88.93 1213.64,-360.24 327.49,-288.52 505.59,-527.89 612.78,-969.56 71.72,-375.54 26.15,-811.6 -162.14,-1146.45 -223.29,-397.06 -453.78,-542.92 -792.2,-817.44 -140.54,-106.42 -119.84,-409.26 -110.29,-573.59 208.52,-69.27 186.11,-106.65 184.74,-336.81 -1.11,-186.48 -164.38,-151.66 -297.79,-151.66l-830.8 0c-151.64,0 -405.99,-44.73 -420.03,133.84 -8.06,102.5 -14.32,276.73 83.1,328.16 20.96,11.06 30.71,13.27 51.14,20.33l44.59 26.87c0,150.35 36.11,417.16 -78.09,529.37 -340.47,334.54 -655.14,460.2 -880.32,959.95 -144.91,321.61 -177.84,682.8 -101.51,1026.72 90.14,347.45 260.07,657.99 525.08,903.78z"/>
  <g>
   <path class="fil1" d="M2494.81 4198.67l63.14 -40.22c31.31,111.78 70.11,242.5 117.86,356.49 28.15,67.19 158.75,257.05 208.32,280.03 -33.15,83.58 -118.14,138.15 -185.57,89.34 -53.43,-38.68 -106.19,-112.7 -134.06,-170.23 -90.22,-186.2 -57.13,-364.97 -69.7,-515.42zm-497.39 602.27c31.43,-63.83 104.72,-86.72 201.25,-284.42 62.04,-127.06 76,-239.01 125.24,-355.88l61.6 38.92c9.11,172.68 -3.1,354.58 -69.78,513.85 -50.2,119.92 -199.06,299.65 -318.31,87.53zm726.71 -1002.27c38.72,4.1 97.91,67.46 133.89,95.07 46.73,36.38 218.64,201.7 245.47,237.54 36.42,48.67 75.03,78.53 112.65,128.32 67.19,88.91 431.86,543.95 195.3,603.64 -219.06,55.27 -510.18,-151.65 -612.19,-330.48 -60.99,-106.92 -97.27,-227.83 -125.76,-347.12 -23.27,-97.44 -27.06,-97.9 2.59,-191.88 19.1,-60.51 22.25,-141.88 48.05,-195.09zm-847.35 217.25c64.35,-55.09 126.43,-111.52 191.76,-166.32 23.73,-18.17 47.16,-36.42 70.28,-54.22 24.49,36.12 39.04,133.56 54.81,182.65 30.67,95.51 54.08,67.25 21.62,187.92 -33.18,123.36 -63.01,236.11 -125.2,348.54 -99.8,180.43 -393.13,388.35 -610.76,349.86 -262.54,-46.44 113.4,-505.65 174.43,-597.67l223.06 -250.76zm569.63 59.06c-69.68,-29.27 -160.99,-159.18 -184.56,-237.81 -41.51,-138.44 9.48,-226.71 155.97,-231.76 335.46,-11.59 180.43,418.91 28.59,469.57zm-107.88 -580.82c11.23,-90.43 167.64,-121.64 194.87,-1.54 -87.49,-6.32 -106.54,-7.16 -194.87,1.54zm204.75 -178.72l-187.6 0c-62.14,-114.24 -123.44,-174.36 -218.47,-259.07 -101.06,-93.73 -248.14,-64.04 -69.74,64.88 32.68,31.1 60.72,55.85 91.72,86.94 25,33.01 57.48,65.93 77.92,100.75 84.89,206.69 -130.82,365.68 -226.56,447.49 -260.42,249.1 -278.77,257.49 -432.06,426.58 -64.46,90.04 -98.96,128.93 -155.39,227.71l-59.01 110.67c-75.43,127.19 -132.75,229.26 -44.67,372.44 177.23,170.37 402.46,65 589.6,-33.65 24.67,22.39 141.64,227.97 316.24,121.31 90.79,-55.47 179.76,-191.34 211.99,-296.89l22.68 60.17c95.59,177.97 231.93,374.75 428.25,219.87 45.15,-35.61 52.3,-63.52 83.91,-99.31 144.46,68.3 252.18,140.6 427.75,111.02 187.28,-31.56 223.25,-161.23 169.71,-328.31l-30.16 -85.16 -21.35 -47.55 -64.34 -96.72c-15.01,-44.32 -77.86,-126.18 -107.77,-163.5 -14.48,-18.08 -111.49,-132.87 -114.35,-139.11 -43.09,-44.13 -78.62,-91.64 -113.6,-123 -29.18,-24.78 -59.9,-50.57 -85.9,-76.81 -19.07,-19.24 -69.55,-67.73 -80.99,-82.63 -29.64,-47.21 -145.31,-113.39 -193.4,-154.73 -221.22,-154.46 -156.85,-435.62 83.53,-583.63 76.74,-38.32 88.94,-116.5 6.95,-88.84 -90.62,30.58 -243.66,158.89 -296.5,296.71l-8.38 12.35z"/>
  </g>
  <path class="fil1" d="M2534.11 5526.95l3.89 3.95c1.49,38.91 -13.87,64.44 -66.19,42.99 -26.85,-21.08 -14.56,-42.16 0.49,-67.93 37.07,-10.9 45.34,-14.09 61.81,20.98zm-214.17 -89.54c-22.16,22.14 -8.77,14.69 -35.73,22.02l-44.67 -5.17 -17.71 -13.11c-47.11,-52.79 -8.92,-117.43 44.42,-119.61 67.73,-2.76 83.15,64.77 53.69,115.87zm730.02 -67.63c-66.73,84.16 -145.25,-32.41 -42.15,-68.18 33.8,20.45 41.74,26.2 42.15,68.18zm-426.28 15.64l-3.85 2.55c-33.37,18.76 -34.7,14.88 -67.6,-6.33 -24.06,-125.66 136.2,-75 71.45,3.78zm-732.53 -5.07l-39.39 -15.4c-50.43,-38.17 -30.13,-147.47 89.86,-114.31 46.51,77.36 21.36,107.53 -50.47,129.72zm-241.2 74.26c71.28,36.09 130.95,85.39 213.12,123.38 439.95,203.43 932.08,174.8 1331.28,-101.4 111.25,-76.98 281.03,-219.16 329.96,-347.7 -18.61,-31.94 -80.63,-14.98 -117.69,-14.76 -47.7,0.29 -100.02,-18.92 -145.19,-8.55 -132.64,30.45 -52.99,-1.69 -185.63,28.77l-207.1 8.85c-55.7,-7.95 -73.97,20.23 -132.43,17.09 -47.72,-2.56 -84.81,-22.66 -139.37,-22.47 -70.02,0.25 -71.85,0.69 -137.49,-14.38 -42.38,-9.73 -101.4,9.62 -146.22,9.92 -93.35,0.61 -136.92,-55.66 -414.38,-23.16l-284.59 -8.11c-48.23,-0 -91.5,18.77 -137.77,20.76 -45.28,1.95 -68.89,-33.49 -110.31,8.4 -29.86,62.32 233.82,298.32 283.8,323.35z"/>
  <path class="fil2" d="M2724.13 3798.68c-25.8,53.22 -28.96,134.58 -48.05,195.09 -29.65,93.98 -25.87,94.44 -2.59,191.88 28.49,119.29 64.77,240.21 125.76,347.12 102.01,178.83 393.13,385.75 612.19,330.48 236.56,-59.69 -128.11,-514.73 -195.3,-603.64 -37.62,-49.78 -76.23,-79.65 -112.65,-128.32 -26.83,-35.85 -198.79,-201.22 -245.47,-237.54 -46.95,-46.73 -95.17,-90.97 -133.89,-95.07z"/>
  <path class="fil2" d="M2138.82 3795.38c-23.12,17.8 -46.55,36.05 -70.28,54.22 -65.33,54.8 -127.41,111.23 -191.76,166.32 -41.18,35.25 -192.84,205.2 -223.06,250.76 -61.03,92.02 -436.98,551.24 -174.43,597.67 217.63,38.5 510.97,-169.43 610.76,-349.86 62.19,-112.43 92.01,-225.18 125.2,-348.54 32.46,-120.67 9.05,-92.41 -21.62,-187.92 -15.76,-49.09 -30.32,-146.53 -54.81,-182.65z"/>
  <path class="fil3" d="M1813.31 3925.06c20.78,-20.22 41.84,-58.55 56.94,-87 26.77,-50.41 99.3,-137.37 79.84,-192.09 -119.37,8.27 -81.82,144.27 -166.16,151.87 0.08,-92.69 80.33,-240.39 26.8,-321.6 -113.81,2.19 -40.49,113.25 -88.57,152.63 -45.43,-19.47 -38.42,-99.86 -48.73,-140.39 -42.19,-165.78 -132.17,-148.79 -97.42,-0.85 5.67,24.12 8.44,41.78 14.61,65.79 11.95,46.53 23.58,88.21 23.58,137.22 -74.94,-18.15 -153.97,-168.22 -220.27,-113.07 -38.83,46.64 24.54,74.14 52.95,101.72 31.88,30.95 62.05,62.43 93.61,93.99 102.17,102.17 145.17,118.26 145.17,230.03 -77.35,-20.93 -246.93,-260.46 -327.47,-193.47 -42.38,42.37 82.97,133.24 114.36,156.45 35.54,26.26 50.72,39.83 81.18,70.68 34.3,34.74 63.21,44.48 91.24,73.72 32.73,-34.45 65.6,-67.97 89.43,-92.78 16.85,-17.54 50.82,-65.53 78.89,-92.84z"/>
  <path class="fil3" d="M3231.56 4116.02l137.32 -109.31c21.89,-18.31 12.22,-18.61 39.38,-40.08 48.63,-38.46 141.84,-104.38 135.5,-168.78 -52.87,0 -58.55,-7.36 -96.08,28.95 -28.78,27.84 -44.95,28.23 -71.62,53.44 -43.66,41.26 -81.98,102.46 -144.24,114.15l-21.44 23.23c-10.02,-60.96 -8.6,-97.35 30.92,-138.05 15.24,-15.69 29.64,-38.1 45.01,-54.05 22.17,-23.01 25.39,-14.84 47.37,-40.78 25.18,-29.72 64.93,-77.81 91.86,-104.63 35.6,-35.47 82.92,-44.97 80.58,-105.59l-33.96 -19.1c-40.05,23.92 -54.78,33.36 -86.97,65.95 -33.55,33.98 -51.1,67.79 -99.25,69.27l-25.72 33.67c10.24,-80.39 77.97,-286.16 57.48,-346.34 -47.12,-33.52 -82.6,64.24 -90.23,94.62l-24.94 136.25c-11.12,41.66 -6.56,21.74 -22.71,25.9 -27.88,-38.37 7.3,-159.32 -82.7,-167.43 -84.34,21.13 18.04,235.1 17.86,330.53 -42.18,-4.57 -30.34,-23.69 -86.48,-101.12 -35.53,-49 -90.53,-70.95 -92.18,10.72 33.95,49.64 62.59,111.92 93.38,165.95 30.02,52.68 85.85,81.63 97.31,128.1 33.76,29.32 39.81,48.89 104.53,114.53z"/>
  <path class="fil2" d="M2446.41 4074.98c151.84,-50.67 306.87,-481.16 -28.59,-469.57 -146.49,5.06 -197.48,93.33 -155.97,231.76 23.57,78.63 114.88,208.54 184.56,237.81z"/>
  <path class="fil2" d="M1997.42 4800.95c119.24,212.12 268.11,32.39 318.31,-87.53 66.67,-159.27 78.89,-341.18 69.78,-513.85l-61.6 -38.92c-49.24,116.87 -63.2,228.82 -125.24,355.88 -96.53,197.7 -169.82,220.58 -201.25,284.42z"/>
  <path class="fil2" d="M2494.81 4198.67c12.57,150.45 -20.52,329.22 69.7,515.42 27.87,57.53 80.63,131.55 134.06,170.23 67.43,48.82 152.42,-5.75 185.57,-89.34 -49.58,-22.98 -180.18,-212.85 -208.32,-280.03 -47.75,-113.99 -86.56,-244.72 -117.86,-356.49l-63.14 40.22z"/>
  <path class="fil3" d="M1364.08 4521.39l59.01 -110.67c-3.35,-72.12 67.14,-244.88 33.93,-282.36 -55.91,12.61 -87.98,113.06 -104.28,164.88 0.79,-37.67 -28.69,-156.03 -44.62,-191.68l-20.68 -17.15c-62.78,37.94 -43.07,106 -21.57,169.07 10.94,32.08 14.8,39.11 2.99,74.48 -53.32,13.56 -26.47,-45.42 -128.13,-20.93 1.55,73.08 45.93,82.99 101.24,113.15 40.03,21.83 116.35,58.81 122.09,101.2z"/>
  <path class="fil3" d="M3537.19 4253.44l-8.84 56.77 -59.3 -172.91c-24.83,-18.57 -46.78,6.65 -52.79,31.12 -3.77,15.37 2.35,74.68 11.41,92.42 20.67,41.33 43.22,118.82 26,157.78l64.34 96.72c46.12,-28.7 83.49,-60.74 127.42,-88.21 40.17,-25.12 96.65,-69.62 102.24,-120.1 -16.48,-8.17 -126.77,34.5 -148.05,50.22 11.97,-81.29 36.56,-174.13 36.71,-255.69 -92.16,-1.41 -78.73,82.49 -99.15,151.87z"/>
  <path class="fil3" d="M1350.43 4544.53c-67.65,37.23 -127.26,-105.41 -197.69,-46.83 -55.62,66.82 114.26,121.29 146.85,144.52 20.02,-42.39 30.32,-58.64 50.85,-97.69z"/>
  <path class="fil3" d="M3539.37 4562.89l30.16 85.16c52.03,-58.01 150.18,-40.78 169.86,-117.68 -33.73,-18.1 -22.87,-17.06 -62.38,-17.87l-137.64 50.39z"/>
  <path class="fil2" d="M2338.52 3494.16c88.33,-8.7 107.38,-7.86 194.87,-1.54 -27.23,-120.1 -183.64,-88.89 -194.87,1.54z"/>
  <path class="fil4" d="M1851.75 5364.95l17.29 5.03c56.93,26.72 -104.44,-63.16 39.96,-98.14 36.94,18.55 43.7,22.78 44.53,67.03l-8.8 14.95c34.51,0 11.29,-79.2 -3.13,-103.19 -119.99,-33.16 -140.28,76.14 -89.86,114.31z"/>
  <path class="fil4" d="M3013.68 5386.44c-68.39,-47.68 47.4,-63.85 0,0zm36.28 -16.66c-0.41,-41.98 -8.36,-47.72 -42.15,-68.18 -103.1,35.77 -24.57,152.33 42.15,68.18z"/>
  <path class="fil4" d="M2221.84 5441.15l13.37 8.2 -12.92 -68.04 28.32 -26.94c16.39,-0.56 32.78,-1.13 49.17,-1.69l30.8 33.65 -10.64 51.09c29.47,-51.11 14.05,-118.64 -53.69,-115.87 -53.34,2.18 -91.52,66.82 -44.42,119.61z"/>
  <path class="fil4" d="M2619.83 5387.97l-35.27 -3.51c-6.58,-30.07 -11.7,-23.9 5.68,-47.8 38.47,-1.16 43.5,16.06 33.44,48.76 64.75,-78.78 -95.51,-129.44 -71.45,-3.78 32.91,21.21 34.23,25.09 67.6,6.33z"/>
  <path class="fil4" d="M2471.81 5573.9l0.95 -31.82 33.93 -31.48 27.43 16.36 3.89 3.95c-28.68,-29.18 -7.46,-42.05 -65.7,-24.93 -15.05,25.76 -27.34,46.84 -0.49,67.93z"/>
  <path class="fil0" d="M2377.11 2882.43l32.56 5.72c-1.91,13.17 -1.17,24.62 2.15,34.28 3.32,9.6 10.1,18.53 20.31,26.71 10.28,8.12 22.65,14.15 37.17,18.03 12.86,3.44 24.74,4.62 35.63,3.38 10.9,-1.17 19.63,-4.43 26.22,-9.85 6.58,-5.35 10.95,-12 13.04,-19.88 2.15,-8 1.73,-15.63 -1.35,-22.83 -3.02,-7.2 -9.3,-14.28 -18.89,-21.23 -6.16,-4.49 -20.18,-12.68 -42.09,-24.62 -21.91,-11.87 -36.93,-21.6 -44.99,-29.11 -10.46,-9.6 -17.42,-19.94 -20.86,-31.02 -3.45,-11.08 -3.57,-22.47 -0.43,-34.16 3.45,-12.86 10.34,-23.94 20.62,-33.17 10.34,-9.23 23.26,-14.89 38.83,-16.93 15.63,-2.03 32,-0.74 49.17,3.88 18.89,5.05 34.77,12.56 47.57,22.52 12.8,9.97 21.48,21.91 26.09,35.82 4.62,13.91 5.17,28.44 1.79,43.51l-33.05 -6.21c2.59,-16.56 -0.06,-30.34 -7.88,-41.29 -7.82,-10.89 -21.54,-18.96 -41.11,-24.25 -20.43,-5.48 -36.31,-5.72 -47.63,-0.74 -11.39,4.98 -18.46,12.74 -21.29,23.32 -2.46,9.17 -1.17,17.6 3.88,25.29 4.93,7.63 20.25,18.22 46.04,31.82 25.78,13.54 43.14,24 52.06,31.39 13.05,10.83 21.67,22.4 25.97,34.83 4.25,12.37 4.55,25.42 0.86,39.08 -3.63,13.6 -10.95,25.35 -21.91,35.26 -11.01,9.91 -24.67,16.25 -41.05,19.02 -16.31,2.77 -33.6,1.72 -51.82,-3.14 -23.08,-6.22 -41.54,-14.77 -55.33,-25.66 -13.79,-10.9 -23.32,-24.31 -28.55,-40.19 -5.23,-15.88 -5.85,-32.43 -1.73,-49.6z"/>
  <path id="_1_4" class="fil0" d="M2600.18 3030.05l49.54 -184.81 28.13 7.57 -7.45 28c10.65,-11.14 19.63,-18.03 26.83,-20.56 7.2,-2.58 14.46,-2.83 21.78,-0.92 10.53,2.83 20.37,9.11 29.48,18.71l-18.58 26.21c-6.4,-6.59 -13.48,-10.9 -21.11,-12.99 -6.89,-1.79 -13.6,-1.42 -20.12,1.23 -6.53,2.71 -11.94,7.39 -16.25,14.03 -6.46,10.22 -11.45,21.91 -15.02,35.14l-25.91 96.74 -31.32 -8.37z"/>
  <path class="fil0" d="M2252.88 2532.74c-8.66,-6.07 -14.42,-12.97 -17.28,-20.72 -2.86,-7.71 -3.08,-16.14 -0.68,-25.17 3.67,-13.69 11.66,-23.85 23.99,-30.56 12.33,-6.66 26.66,-7.84 42.99,-3.45 16.41,4.4 28.34,12.7 35.78,24.89 7.43,12.2 9.34,25.17 5.67,38.82 -2.31,8.75 -6.67,15.69 -12.97,20.95 -6.3,5.21 -14.56,8.34 -24.81,9.34 10.52,6.85 17.69,15.28 21.45,25.26 3.76,9.98 4.12,20.81 0.99,32.42 -4.31,16.05 -13.6,28.07 -27.89,35.96 -14.33,7.89 -30.75,9.34 -49.29,4.35 -18.55,-4.95 -32.01,-14.46 -40.45,-28.48 -8.43,-14.01 -10.43,-29.25 -6.03,-45.66 3.26,-12.2 9.11,-21.63 17.5,-28.21 8.43,-6.58 18.73,-9.84 31.02,-9.75zm5.85 -40.36c-2.4,8.89 -1.45,16.92 2.77,24.08 4.22,7.21 10.89,12.02 20.05,14.46 8.89,2.36 16.91,1.54 24.08,-2.54 7.21,-4.08 11.88,-10.16 14.06,-18.27 2.27,-8.48 1.23,-16.37 -3.08,-23.72 -4.3,-7.35 -10.79,-12.2 -19.54,-14.51 -8.8,-2.36 -16.87,-1.5 -24.17,2.59 -7.34,4.08 -12.06,10.06 -14.15,17.91zm-30.7 84.8c-1.77,6.58 -1.9,13.38 -0.45,20.36 1.5,6.98 4.85,13.01 10.11,18 5.21,5.03 11.43,8.52 18.5,10.43 11.02,2.95 21.09,1.81 30.15,-3.36 9.07,-5.17 15.1,-13.19 18,-24.17 2.99,-11.11 1.77,-21.27 -3.67,-30.52 -5.44,-9.25 -13.74,-15.37 -24.85,-18.32 -10.83,-2.9 -20.81,-1.72 -29.88,3.54 -9.07,5.26 -15.01,13.29 -17.91,24.03z"/>
  <path id="_1_5" class="fil0" d="M2381.49 2501.4l5.94 -22.18 121.66 32.56 -4.8 17.96c-15.37,9.52 -31.74,23.31 -49.15,41.26 -17.41,17.96 -32.33,37.23 -44.71,57.81 -8.84,14.46 -16.37,30.92 -22.67,49.29l-23.72 -6.35c4.21,-14.74 11.88,-31.79 23.08,-51.24 11.15,-19.45 24.53,-37.55 40.13,-54.19 15.6,-16.69 31.02,-30.11 46.3,-40.27l-92.05 -24.67z"/>
  <path class="fil1" d="M2801.11 1325.85l-42.9 132.03 -45.24 -14.7 111.43 -342.94c32.11,-98.82 87.85,-135.38 167.28,-109.57 29.98,9.74 51.37,24.83 64.12,45.44 12.87,20.56 15.02,43.88 6.53,70 -14.64,45.05 -50.04,67.58 -106.36,67.74l-0.67 2.07c53.06,31.83 70.79,74.7 53.26,128.64 -10.82,33.3 -29.51,55.4 -56.05,66.23 -26.66,10.89 -55.27,11.31 -85.97,1.34 -27.64,-8.98 -49.52,-24.42 -65.44,-46.27zm95.24 -155.4l6.82 -21c24.97,7.12 47.79,5.61 68.31,-4.4 20.54,-10.1 34.77,-27.6 42.79,-52.29 6.56,-20.19 6.61,-37.44 0.17,-51.84 -6.44,-14.4 -18.27,-24.39 -35.5,-29.99 -24.32,-7.9 -45.32,-2.82 -62.88,15.19 -17.56,18.01 -33.44,48.87 -47.61,92.49l-50.77 156.26c-5.22,16.07 -3.08,30.85 6.39,44.15 9.53,13.42 22.74,22.87 39.79,28.41 45.95,14.93 77.27,-3.57 94.15,-55.54 9.04,-27.82 8.32,-52.47 -2.26,-73.97 -10.52,-21.38 -30.37,-37.25 -59.39,-47.48z"/>
  <path class="fil1" d="M2261.67 165.21l193.08 57.11 12.31 14.66 15.06 212.12 112.48 -94.38c14.41,-12.09 22.14,-24.06 23.1,-36 1.04,-11.85 -5.93,-30.99 -20.91,-57.28l24.75 -20.77 73.95 99.15 -235.39 197.51 -10.24 -12.21 -17.1 -246.23 -239.9 -74.16 -10.24 -12.21 229.46 -192.54 72.69 86.63 -23.39 19.63c-29.11,-20.92 -50.57,-32.39 -64.47,-34.31 -13.89,-1.92 -27.59,2.93 -41.15,14.31l-94.09 78.95z"/>
  <path class="fil2 str0" d="M2354.06 2085.39c-15.46,8.22 -26.62,17.29 -33.52,27.38 -6.9,10.09 -12.15,25.72 -15.62,46.83l-29.65 -6.92c4.74,-35.62 11.98,-61.44 21.67,-77.29 9.69,-15.85 26.58,-30.25 50.93,-43.2l274.71 -146.06 23.42 44.04 -78.86 41.93 103.96 195.52c15.08,28.36 30.77,38.28 47.12,29.58 9.34,-4.97 17.57,-16.33 24.84,-34.03l23.2 12.77c-13.3,33.75 -31.43,56.8 -54.45,69.04 -18.69,9.94 -36.07,11.05 -51.98,3.39 -15.91,-7.66 -31.77,-26.48 -47.56,-56.17l-101.18 -190.29 -99.98 53.16 142.22 267.48 -65.5 34.83 -8.52 -16.01c-13.69,-58.21 -43.62,-130.6 -89.68,-217.24l-23.89 -44.93 -11.68 6.21z"/>
  <path class="fil2 str0" d="M2515.13 941.37l-4.15 -4.95c-35.07,-6.15 -65.9,-16.46 -92.58,-30.85 -26.6,-14.46 -48.9,-32.41 -67.01,-53.99 -19.71,-23.49 -32.62,-48.36 -38.78,-74.67 -6.16,-26.31 -4.86,-51.63 3.78,-76.12 8.63,-24.49 23.95,-45.9 45.74,-64.19 22.72,-19.06 45.65,-30.83 69,-35.47 23.35,-4.64 46.44,-1.71 69.33,8.75 22.89,10.46 44.46,27.69 64.65,51.75 11.7,13.94 21.42,28.69 29.18,44.25 7.75,15.57 13.92,31.25 18.51,47.06 4.58,15.81 7.75,31.37 9.62,46.67 1.82,15.24 2.72,29.55 2.55,42.84l3.33 3.96 18.89 -15.86c6.79,-5.7 11.95,-10.63 15.6,-14.9 3.58,-4.21 5.91,-8.33 6.85,-12.38 0.88,-4.12 0.61,-8.47 -0.88,-13.13 -1.56,-4.6 -3.96,-10.18 -7.32,-16.77l20.31 -17.04 43 63.89 -96.03 80.58 -25.06 -29.86c-5.74,-33.28 -15.05,-64.07 -27.79,-92.33 -12.8,-28.33 -28.73,-53.79 -47.91,-76.65 -19.71,-23.49 -38.75,-40.44 -57.25,-50.84 -18.5,-10.41 -35.89,-14.74 -51.97,-13.07 -16.21,1.66 -31.36,8.47 -45.58,20.4 -14.01,11.76 -22.57,25.69 -25.89,41.86 -3.25,16.11 -1.14,34 6.46,53.55 7.6,19.55 20.18,39.86 37.82,60.88 20.84,24.84 43.93,45.74 69.26,62.71 25.28,16.9 53.47,31.1 84.62,42.35l25.06 29.86 -95.6 80.22 -55.2 -53.28 20.31 -17.04c7.25,5.61 12.82,9.38 16.51,11.34 3.77,1.9 7.28,2.93 10.57,2.83 3.22,-0.05 7.06,-1.22 11.32,-3.47 4.27,-2.38 10.57,-6.94 18.71,-13.77l18.04 -15.14z"/>
  <g id="_2389343514656">
   <path class="fil1" d="M2209.87 1282.62c12.84,-16.26 25.3,-36.31 37.38,-60.09l71.42 -139.94c-7.6,-29.71 -14.66,-50.52 -21.27,-62.6 -6.61,-12 -16.71,-18.01 -30.39,-18.01 -12.61,0 -24.61,6.23 -36.01,18.69l-10.94 -12.01c20.51,-22.41 40.72,-33.58 60.78,-33.58 13.98,0 24.77,3.95 32.51,11.85 7.67,7.97 14.13,20.59 19.37,37.99 5.17,17.32 12.54,50.9 22.03,100.59 12.31,64.88 21.88,105.75 28.79,122.77 6.91,16.94 15.12,25.45 24.62,25.45 6.84,0 13.14,-2.35 18.91,-7.07l8.43 13.3c-14.66,11.47 -27.88,17.17 -39.58,17.17 -16.64,0 -28.49,-8.51 -35.63,-25.6 -7.14,-17.09 -17.09,-62.98 -29.86,-137.81l-1.29 0c-25.22,51.2 -49.92,104.46 -74.15,159.84l-45.13 0 0 -10.94z"/>
   <path class="fil0" d="M2109.65 1412.81l53.42 4.97c-7.77,26.5 -25.47,51.55 -53.11,75.47 -27.64,23.81 -60.66,35.72 -98.97,35.72 -23.91,0 -45.86,-5.49 -65.74,-16.46 -19.98,-11.07 -35.2,-27.02 -45.66,-48.04 -10.46,-21.01 -15.63,-44.93 -15.63,-71.74 0,-35.09 8.18,-69.15 24.43,-102.18 16.36,-33.02 37.48,-57.56 63.36,-73.61 25.98,-16.05 54.04,-24.02 84.27,-24.02 38.51,0 69.26,11.91 92.24,35.72 22.98,23.71 34.48,56.21 34.48,97.31 0,15.74 -1.45,31.78 -4.25,48.35l-238 0c-0.83,6.32 -1.24,11.91 -1.24,16.98 0,30.23 6.94,53.21 20.91,69.15 13.87,15.84 30.95,23.81 51.04,23.81 18.84,0 37.48,-6.11 55.8,-18.43 18.22,-12.22 32.5,-29.92 42.65,-53.01zm-160.36 -80.75l181.58 0c0.21,-5.59 0.31,-9.62 0.31,-12.11 0,-27.33 -6.94,-48.35 -20.71,-62.95 -13.87,-14.6 -31.58,-21.85 -53.31,-21.85 -23.6,0 -45.03,8.08 -64.39,24.12 -19.46,16.15 -33.85,40.37 -43.48,72.77z"/>
  </g>
 </g>
</svg>
