<?xml version="1.0" encoding="UTF-8"?>
<!DOCTYPE svg PUBLIC "-//W3C//DTD SVG 1.1//EN" "http://www.w3.org/Graphics/SVG/1.1/DTD/svg11.dtd">
<!-- Creator: CorelDRAW -->
<svg xmlns="http://www.w3.org/2000/svg" xml:space="preserve" width="8.5in" height="11in" version="1.1" style="shape-rendering:geometricPrecision; text-rendering:geometricPrecision; image-rendering:optimizeQuality; fill-rule:evenodd; clip-rule:evenodd"
viewBox="0 0 8500 11000"
 xmlns:xlink="http://www.w3.org/1999/xlink"
 xmlns:xodm="http://www.corel.com/coreldraw/odm/2003">
 <defs>
  <style type="text/css">
   <![CDATA[
    .str0 {stroke:#96C5CD;stroke-width:3;stroke-miterlimit:2.61313}
    .fil1 {fill:#093D5A}
    .fil3 {fill:#5C9C73}
    .fil2 {fill:#96C5CD}
    .fil4 {fill:#C5E9EB}
    .fil0 {fill:#093D5A;fill-rule:nonzero}
   ]]>
  </style>
 </defs>
 <g id="Layer_x0020_1">
  <metadata id="CorelCorpID_0Corel-Layer"/>
  <path class="fil0" d="M1919.46 9664.63c18.44,0 32.19,-7.5 40.31,-23.13 4.69,-8.13 7.5,-15.31 7.5,-23.75 0,-8.13 -2.81,-15.63 -7.5,-22.81l-293.75 -510.94c94.06,-35.63 164.69,-95 210.63,-178.44 29.06,-54.06 43.75,-113.75 43.75,-178.13 0,-128.44 -61.25,-241.56 -167.5,-311.87 -77.81,-50.94 -168.44,-76.56 -273.13,-76.56l-449.69 0c-25.62,0 -46.56,20.31 -46.56,45.63l0 1233.13c0,25.62 20.94,46.87 46.56,46.87l164.06 0c25.63,0 45.63,-21.25 45.63,-46.87l0 -500.63 162.19 0 302.5 524.37c9.06,15.63 22.81,23.13 40.31,23.13l174.69 0zm-679.69 -785.63l0 -303.75 240 0c50.63,0 92.81,11.87 126.56,35.62 38.44,26.56 57.81,66.25 57.81,116.56 0,50.63 -19.37,89.38 -57.81,116.88 -33.75,22.81 -75.94,34.69 -126.56,34.69l-240 0z"/>
  <path id="_1" class="fil0" d="M4378.28 9827.75c8.13,0 15.31,-1.87 22.81,-6.56l130.94 -75.63c15.63,-9.06 23.75,-22.81 23.75,-41.25 0,-8.44 -1.87,-15.63 -6.25,-23.13l-83.44 -144.69c84.37,-75.31 144.69,-170.31 181.25,-284.37 24.69,-78.75 37.5,-161.87 37.5,-250.31 0,-88.44 -12.81,-171.56 -37.5,-250.31 -26.56,-85 -66.87,-158.75 -120,-221.87 -59.37,-70.63 -130.94,-123.75 -215,-159.69 -79.69,-33.75 -167.5,-51.25 -263.75,-51.25 -96.25,0 -184.06,17.5 -263.75,51.25 -84.06,35.94 -155.63,89.06 -215,159.69 -53.13,63.13 -93.44,136.87 -120,221.87 -24.69,78.75 -37.5,161.87 -37.5,250.31 0,88.44 12.81,171.56 37.5,250.31 26.56,84.06 66.87,157.81 120,220.94 59.37,70.63 130.94,124.69 215,160.63 79.69,33.75 167.5,51.25 263.75,51.25 72.19,0 140,-10 203.12,-29.37l86.25 149.06c8.13,15.63 21.87,23.13 40.31,23.13zm-329.69 -376.56c-127.19,0 -225.31,-49.37 -294.69,-148.13 -56.87,-80.31 -85.31,-180.63 -85.31,-301.25 0,-120.63 28.44,-220.94 85.31,-302.19 70.31,-97.81 168.44,-147.19 294.69,-147.19 126.25,0 224.37,49.38 294.69,147.19 56.88,81.25 85.31,182.5 85.31,302.19 0,119.69 -28.44,220 -85.31,301.25l-7.19 9.37 -111.88 -193.75c-10,-15.63 -22.81,-23.75 -39.06,-23.75 -8.44,0 -16.56,2.81 -25,7.19l-130.94 75c-15.31,10 -23.75,23.75 -23.75,41.25 0,8.13 1.87,15.31 6.56,22.81l118.13 202.81c-26.56,4.37 -53.13,7.19 -81.56,7.19z"/>
  <path id="_2" class="fil0" d="M5227.23 9664.63c25.63,0 46.56,-21.25 46.56,-46.87l0 -1232.81c0,-25.62 -20.94,-45.94 -46.56,-45.94l-163.13 0c-25.62,0 -46.56,20.31 -46.56,45.94l0 1232.81c0,25.62 20.94,46.87 46.56,46.87l163.13 0z"/>
  <path id="_3" class="fil0" d="M5877.73 9664.63c25.63,0 46.56,-21.25 46.56,-46.87l0 -502.5 516.56 0c26.25,0 46.56,-21.25 46.56,-46.88l0 -144.37c0,-25.63 -20.31,-46.87 -46.56,-46.87l-516.56 0 0 -301.87 570.31 0c25.63,0 46.88,-20.94 46.88,-46.56l0 -144.06c0,-25.31 -21.25,-45.63 -46.88,-45.63l-780 0c-25.62,0 -46.56,20.31 -46.56,45.63l0 1233.13c0,25.62 20.94,46.87 46.56,46.87l163.13 0z"/>
  <path id="_4" class="fil0" d="M3097.78 9664.63c25.63,0 46.88,-21.25 46.88,-46.87l0 -144.38c0,-25.62 -21.25,-46.87 -46.88,-46.87l-570.31 0 0 -311.25 516.56 0c26.25,0 46.56,-21.25 46.56,-46.88l0 -144.37c0,-25.63 -20.31,-46.87 -46.56,-46.87l-516.56 0 0 -301.87 570.31 0c25.63,0 46.88,-20.94 46.88,-46.56l0 -144.06c0,-25.31 -21.25,-45.63 -46.88,-45.63l-780 0c-25.62,0 -46.56,20.31 -46.56,45.63l0 1233.13c0,25.62 20.94,46.87 46.56,46.87l780 0zm-363.44 -1383.75c11.87,0 21.25,-4.69 28.44,-13.75l157.5 -189.37c5.63,-6.25 8.13,-13.75 8.13,-20.94 0,-6.25 -0.94,-12.81 -3.44,-18.13 -6.56,-14.69 -18.44,-22.19 -34.06,-22.19l-163.75 0c-15.63,0 -27.5,7.5 -34.06,21.25 -63.13,131.56 -95,200 -95,205.62 0,6.25 1.87,13.75 6.25,20 7.5,11.88 17.5,17.5 31.25,17.5l98.75 0z"/>
  <path class="fil1" d="M4491.95 3233.5c5.18,154.36 -97.47,47.56 -173.76,137.49 -51.21,60.37 -33.38,209.7 -33.33,289.59 0.15,237.72 -32.74,350.07 79.45,566.39 170.87,329.44 1124.75,650 1193.38,1681.63 9.27,139.37 23.56,295 -7.06,434.43 -34.59,157.48 -25.42,202.09 -103.61,385.97 -126.37,297.21 -300.86,527.78 -551.11,730.14 -101.09,81.75 -278.47,185.84 -398.2,237.22 -157.69,67.67 -343.48,114.48 -513.99,131.85 -102.83,10.48 -436.35,-8.14 -572.29,-44.19 -283.58,-75.21 -615.33,-247.89 -822.19,-459.06 -371.18,-378.94 -573.86,-887.37 -530.83,-1422.5 12.58,-156.39 69.93,-379.51 134.94,-522.04 296.31,-649.6 912.18,-847.81 1087.99,-1202.46 86.53,-174.54 62.92,-382.04 62.92,-579.87 0,-108.67 21.57,-182.06 -63.37,-260.41 -35.41,-10.45 -26.45,-11.36 -68.95,-8.75 -104.83,-6.62 -72.08,-43.44 -79.13,-136.53l1358.97 0.65 0.16 40.47zm-1997.39 4310.59c247.25,242.95 726.14,452.85 1117.19,497.58 470.4,53.81 1056.06,-103.69 1415.16,-420.06 381.87,-336.43 589.54,-615.54 714.53,-1130.56 83.63,-437.9 30.49,-946.36 -189.07,-1336.82 -260.36,-462.99 -529.13,-633.07 -923.74,-953.17 -163.88,-124.09 -139.74,-477.22 -128.61,-668.83 243.15,-80.78 217.02,-124.35 215.42,-392.73 -1.29,-217.45 -191.67,-176.84 -347.23,-176.84l-968.75 0c-176.82,0 -473.41,-52.16 -489.77,156.06 -9.39,119.52 -16.69,322.68 96.9,382.65 24.44,12.9 35.81,15.47 59.63,23.71l52 31.33c0,175.31 42.11,486.43 -91.06,617.28 -397.01,390.09 -763.93,536.62 -1026.49,1119.34 -168.97,375.01 -207.37,796.18 -118.36,1197.21 105.11,405.14 303.26,767.24 612.26,1053.85z"/>
  <g>
   <path class="fil1" d="M3874.19 5930.06l73.63 -46.89c36.5,130.34 81.76,282.77 137.43,415.69 32.82,78.34 185.11,299.74 242.91,326.53 -38.65,97.46 -137.75,161.09 -216.38,104.17 -62.3,-45.1 -123.82,-131.41 -156.32,-198.49 -105.2,-217.12 -66.62,-425.57 -81.28,-601zm-579.98 702.28c36.65,-74.43 122.11,-101.12 234.66,-331.65 72.34,-148.15 88.61,-278.7 146.04,-414.97l71.83 45.38c10.63,201.35 -3.62,413.46 -81.36,599.18 -58.53,139.83 -232.12,349.41 -371.16,102.06zm847.38 -1168.7c45.15,4.78 114.17,78.66 156.12,110.85 54.49,42.42 254.94,235.19 286.22,276.99 42.47,56.75 87.49,91.57 131.35,149.63 78.35,103.67 503.57,634.27 227.73,703.87 -255.43,64.45 -594.9,-176.83 -713.85,-385.35 -71.11,-124.67 -113.42,-265.66 -146.64,-404.76 -27.14,-113.62 -31.56,-114.15 3.02,-223.74 22.27,-70.56 25.95,-165.43 56.03,-227.49zm-988.06 253.32c75.03,-64.23 147.42,-130.04 223.6,-193.94 27.67,-21.19 54.99,-42.47 81.95,-63.23 28.55,42.12 45.52,155.74 63.91,212.98 35.77,111.37 63.06,78.42 25.21,219.13 -38.69,143.84 -73.47,275.32 -145.98,406.42 -116.37,210.39 -458.41,452.84 -712.18,407.95 -306.14,-54.15 132.23,-589.61 203.4,-696.92l260.09 -292.39zm664.21 68.86c-81.25,-34.13 -187.72,-185.61 -215.2,-277.3 -48.4,-161.43 11.06,-264.35 181.87,-270.25 391.16,-13.51 210.39,488.46 33.33,547.54zm-125.8 -677.26c13.1,-105.44 195.48,-141.84 227.23,-1.8 -102.02,-7.37 -124.23,-8.35 -227.23,1.8zm238.75 -208.4l-218.75 0c-72.46,-133.21 -143.93,-203.31 -254.75,-302.08 -117.85,-109.3 -289.35,-74.67 -81.32,75.65 38.11,36.26 70.8,65.13 106.95,101.38 29.15,38.49 67.02,76.88 90.86,117.48 98.98,241.02 -152.54,426.4 -264.18,521.8 -303.67,290.46 -325.06,300.24 -503.81,497.42 -75.16,104.99 -115.39,150.34 -181.19,265.52l-68.81 129.04c-87.96,148.31 -154.8,267.32 -52.08,434.28 206.65,198.66 469.29,75.79 687.5,-39.24 28.76,26.1 165.16,265.83 368.75,141.45 105.87,-64.68 209.61,-223.11 247.19,-346.19l26.44 70.17c111.46,207.52 270.44,436.98 499.36,256.38 52.64,-41.53 60.98,-74.06 97.85,-115.8 168.45,79.64 294.06,163.94 498.78,129.45 218.38,-36.8 260.32,-188 197.89,-382.82l-35.17 -99.3 -24.9 -55.44 -75.02 -112.78c-17.5,-51.68 -90.79,-147.13 -125.66,-190.65 -16.89,-21.08 -130,-154.94 -133.33,-162.21 -50.24,-51.45 -91.68,-106.86 -132.46,-143.43 -34.02,-28.89 -69.84,-58.97 -100.17,-89.56 -22.24,-22.44 -81.09,-78.97 -94.44,-96.35 -34.56,-55.05 -169.44,-132.21 -225.51,-180.42 -257.95,-180.11 -182.89,-507.96 97.4,-680.54 89.48,-44.69 103.71,-135.85 8.11,-103.59 -105.66,35.66 -284.12,185.27 -345.73,345.97l-9.78 14.41z"/>
  </g>
  <path class="fil1" d="M3920.01 7478.89l4.53 4.61c1.74,45.37 -16.17,75.14 -77.18,50.13 -31.31,-24.58 -16.98,-49.17 0.57,-79.2 43.23,-12.71 52.87,-16.43 72.07,24.46zm-249.73 -104.41c-25.84,25.81 -10.23,17.13 -41.67,25.68l-52.08 -6.03 -20.65 -15.29c-54.93,-61.56 -10.41,-136.93 51.79,-139.47 78.98,-3.22 96.96,75.52 62.6,135.11zm851.24 -78.86c-77.81,98.13 -169.37,-37.79 -49.15,-79.5 39.41,23.85 48.67,30.55 49.15,79.5zm-497.07 18.24l-4.49 2.97c-38.91,21.87 -40.46,17.35 -78.83,-7.38 -28.06,-146.52 158.81,-87.46 83.31,4.41zm-854.17 -5.92l-45.93 -17.96c-58.8,-44.51 -35.14,-171.96 104.78,-133.3 54.23,90.2 24.91,125.39 -58.85,151.26zm-281.25 86.59c83.11,42.08 152.7,99.57 248.51,143.87 513,237.21 1086.85,203.83 1552.34,-118.24 129.73,-89.76 327.69,-255.56 384.74,-405.43 -21.7,-37.24 -94.02,-17.47 -137.23,-17.21 -55.62,0.33 -116.63,-22.07 -169.3,-9.97 -154.67,35.51 -61.79,-1.97 -216.46,33.54l-241.49 10.32c-64.95,-9.27 -86.25,23.59 -154.42,19.93 -55.64,-2.99 -98.9,-26.43 -162.52,-26.2 -81.64,0.29 -83.78,0.81 -160.32,-16.77 -49.42,-11.35 -118.24,11.22 -170.5,11.56 -108.85,0.72 -159.65,-64.91 -483.18,-27l-331.84 -9.46c-56.24,-0 -106.69,21.89 -160.64,24.21 -52.8,2.27 -80.33,-39.05 -128.62,9.79 -34.82,72.67 272.65,347.86 330.93,377.04z"/>
  <path class="fil2" d="M4141.59 5463.64c-30.08,62.06 -33.76,156.93 -56.03,227.49 -34.58,109.59 -30.16,110.12 -3.02,223.74 33.22,139.1 75.53,280.09 146.64,404.76 118.95,208.52 458.41,449.8 713.85,385.35 275.84,-69.6 -149.39,-600.2 -227.73,-703.87 -43.87,-58.05 -88.89,-92.87 -131.35,-149.63 -31.28,-41.8 -231.8,-234.63 -286.22,-276.99 -54.74,-54.48 -110.98,-106.07 -156.12,-110.85z"/>
  <path class="fil2" d="M3459.09 5459.8c-26.96,20.76 -54.28,42.04 -81.95,63.23 -76.18,63.9 -148.57,129.7 -223.6,193.94 -48.02,41.11 -224.87,239.27 -260.09,292.39 -71.17,107.3 -509.54,642.77 -203.4,696.92 253.77,44.89 595.81,-197.56 712.18,-407.95 72.51,-131.1 107.29,-262.57 145.98,-406.42 37.85,-140.71 10.56,-107.75 -25.21,-219.13 -18.38,-57.24 -35.35,-170.86 -63.91,-212.98z"/>
  <path class="fil3" d="M3079.53 5611.01c24.24,-23.58 48.78,-68.28 66.4,-101.44 31.22,-58.78 115.79,-160.18 93.1,-223.99 -139.2,9.65 -95.4,168.22 -193.75,177.08 0.1,-108.09 93.67,-280.3 31.25,-375 -132.71,2.55 -47.22,132.06 -103.28,177.98 -52.97,-22.7 -44.8,-116.44 -56.83,-163.7 -49.2,-193.31 -154.12,-173.49 -113.59,-1 6.61,28.13 9.85,48.72 17.04,76.72 13.94,54.26 27.49,102.86 27.49,160.01 -87.38,-21.17 -179.54,-196.15 -256.85,-131.84 -45.28,54.39 28.62,86.45 61.75,118.61 37.18,36.09 72.35,72.79 109.16,109.59 119.13,119.13 169.27,137.9 169.27,268.22 -90.19,-24.41 -287.94,-303.7 -381.84,-225.59 -49.42,49.4 96.74,155.37 133.35,182.43 41.44,30.63 59.15,46.44 94.66,82.42 40,40.51 73.7,51.87 106.39,85.96 38.17,-40.17 76.5,-79.26 104.28,-108.19 19.65,-20.46 59.26,-76.41 91.99,-108.26z"/>
  <path class="fil3" d="M4733.28 5833.67l160.12 -127.46c25.52,-21.35 14.25,-21.7 45.91,-46.74 56.7,-44.84 165.4,-121.72 158,-196.81 -61.65,0 -68.27,-8.58 -112.04,33.75 -33.56,32.46 -52.41,32.92 -83.51,62.31 -50.91,48.11 -95.59,119.47 -168.19,133.1l-25 27.08c-11.69,-71.09 -10.02,-113.52 36.05,-160.97 17.77,-18.3 34.56,-44.43 52.48,-63.03 25.85,-26.83 29.61,-17.3 55.23,-47.55 29.36,-34.66 75.72,-90.72 107.12,-122 41.51,-41.35 96.69,-52.44 93.96,-123.12l-39.59 -22.27c-46.7,27.9 -63.88,38.9 -101.41,76.91 -39.12,39.62 -59.59,79.05 -115.72,80.78l-29.99 39.26c11.94,-93.74 90.92,-333.67 67.03,-403.85 -54.95,-39.09 -96.31,74.91 -105.21,110.33l-29.08 158.87c-12.96,48.58 -7.65,25.35 -26.48,30.2 -32.51,-44.74 8.52,-185.78 -96.43,-195.24 -98.34,24.64 21.04,274.13 20.83,385.41 -49.18,-5.33 -35.38,-27.62 -100.84,-117.91 -41.43,-57.14 -105.57,-82.73 -107.49,12.5 39.58,57.89 72.99,130.5 108.89,193.5 35,61.43 100.11,95.18 113.47,149.37 39.37,34.19 46.43,57.01 121.88,133.55z"/>
  <path class="fil2" d="M3817.75 5785.82c177.05,-59.08 357.82,-561.06 -33.33,-547.54 -170.81,5.9 -230.27,108.82 -181.87,270.25 27.48,91.68 133.95,243.17 215.2,277.3z"/>
  <path class="fil2" d="M3294.21 6632.33c139.04,247.35 312.63,37.77 371.16,-102.06 77.74,-185.72 91.99,-397.83 81.36,-599.18l-71.83 -45.38c-57.42,136.28 -73.7,266.82 -146.04,414.97 -112.56,230.52 -198.02,257.21 -234.66,331.65z"/>
  <path class="fil2" d="M3874.19 5930.06c14.66,175.44 -23.93,383.89 81.28,601 32.5,67.08 94.02,153.39 156.32,198.49 78.63,56.92 177.73,-6.71 216.38,-104.17 -57.81,-26.8 -210.09,-248.19 -242.91,-326.53 -55.68,-132.92 -100.93,-285.35 -137.43,-415.69l-73.63 46.89z"/>
  <path class="fil3" d="M2555.7 6306.36l68.81 -129.04c-3.9,-84.09 78.29,-285.55 39.56,-329.24 -65.19,14.71 -102.59,131.83 -121.59,192.26 0.92,-43.93 -33.46,-181.94 -52.02,-223.5l-24.11 -20c-73.21,44.24 -50.22,123.6 -25.15,197.14 12.75,37.41 17.26,45.6 3.49,86.85 -62.17,15.81 -30.86,-52.96 -149.4,-24.41 1.8,85.22 53.56,96.78 118.06,131.94 46.68,25.45 135.67,68.57 142.36,118.01z"/>
  <path class="fil3" d="M5089.65 5993.91l-10.3 66.2 -69.15 -201.62c-28.95,-21.65 -54.54,7.76 -61.55,36.29 -4.4,17.92 2.74,87.08 13.3,107.77 24.1,48.2 50.4,138.55 30.32,183.98l75.02 112.78c53.78,-33.47 97.36,-70.82 148.58,-102.85 46.84,-29.3 112.7,-81.18 119.22,-140.04 -19.21,-9.53 -147.82,40.23 -172.63,58.56 13.96,-94.79 42.63,-203.05 42.8,-298.14 -107.46,-1.65 -91.8,96.19 -115.61,177.08z"/>
  <path class="fil3" d="M2539.79 6333.34c-78.88,43.41 -148.39,-122.92 -230.52,-54.61 -64.85,77.91 133.24,141.43 171.23,168.51 23.35,-49.43 35.35,-68.38 59.29,-113.91z"/>
  <path class="fil3" d="M5092.19 6354.75l35.17 99.3c60.67,-67.65 175.12,-47.55 198.06,-137.22 -39.33,-21.11 -26.67,-19.89 -72.74,-20.83l-160.5 58.76z"/>
  <path class="fil2" d="M3691.95 5108.56c103,-10.15 125.21,-9.17 227.23,-1.8 -31.75,-140.04 -214.13,-103.65 -227.23,1.8z"/>
  <path class="fil4" d="M3124.35 7289.98l20.17 5.87c66.39,31.15 -121.79,-73.65 46.6,-114.44 43.07,21.63 50.95,26.56 51.93,78.16l-10.26 17.43c40.24,0 13.17,-92.35 -3.65,-120.32 -139.92,-38.67 -163.58,88.79 -104.78,133.3z"/>
  <path class="fil4" d="M4479.21 7315.04c-79.74,-55.6 55.27,-74.46 0,0zm42.31 -19.42c-0.48,-48.95 -9.74,-55.65 -49.15,-79.5 -120.22,41.7 -28.65,177.63 49.15,79.5z"/>
  <path class="fil4" d="M3555.89 7378.84l15.59 9.56 -15.06 -79.34 33.02 -31.41c19.11,-0.66 38.22,-1.32 57.33,-1.98l35.92 39.23 -12.41 59.57c34.36,-59.59 16.38,-138.33 -62.6,-135.11 -62.2,2.54 -106.72,77.91 -51.79,139.47z"/>
  <path class="fil4" d="M4019.96 7316.83l-41.13 -4.09c-7.67,-35.06 -13.64,-27.87 6.63,-55.73 44.86,-1.35 50.73,18.72 38.99,56.85 75.5,-91.87 -111.37,-150.93 -83.31,-4.41 38.37,24.73 39.92,29.25 78.83,7.38z"/>
  <path class="fil4" d="M3847.37 7533.63l1.11 -37.11 39.56 -36.71 31.98 19.07 4.53 4.61c-33.44,-34.02 -8.7,-49.04 -76.61,-29.07 -17.55,30.04 -31.88,54.62 -0.57,79.2z"/>
  <path class="fil0" d="M3736.95 4395.25l37.96 6.67c-2.23,15.35 -1.37,28.7 2.51,39.97 3.87,11.2 11.77,21.6 23.68,31.14 11.98,9.47 26.41,16.5 43.34,21.03 15,4.02 28.85,5.38 41.55,3.94 12.7,-1.36 22.89,-5.17 30.57,-11.48 7.68,-6.24 12.77,-13.99 15.21,-23.18 2.51,-9.33 2.01,-18.23 -1.57,-26.62 -3.52,-8.4 -10.84,-16.65 -22.03,-24.76 -7.18,-5.24 -23.54,-14.78 -49.08,-28.7 -25.55,-13.85 -43.06,-25.19 -52.46,-33.94 -12.2,-11.19 -20.31,-23.25 -24.33,-36.17 -4.02,-12.92 -4.17,-26.2 -0.5,-39.83 4.02,-15 12.06,-27.92 24.04,-38.68 12.06,-10.76 27.13,-17.37 45.28,-19.74 18.23,-2.37 37.32,-0.86 57.34,4.52 22.03,5.89 40.54,14.64 55.47,26.26 14.93,11.63 25.04,25.55 30.42,41.76 5.39,16.22 6.03,33.16 2.08,50.73l-38.54 -7.24c3.02,-19.31 -0.07,-35.38 -9.19,-48.15 -9.11,-12.7 -25.11,-22.11 -47.93,-28.28 -23.83,-6.39 -42.34,-6.67 -55.54,-0.86 -13.28,5.81 -21.53,14.85 -24.83,27.2 -2.87,10.69 -1.36,20.52 4.52,29.49 5.74,8.9 23.61,21.24 53.68,37.1 30.06,15.78 50.3,27.98 60.7,36.6 15.22,12.63 25.26,26.12 30.28,40.61 4.95,14.43 5.31,29.64 1,45.57 -4.23,15.86 -12.77,29.56 -25.55,41.11 -12.84,11.56 -28.77,18.94 -47.86,22.18 -19.02,3.22 -39.18,2.01 -60.42,-3.66 -26.91,-7.25 -48.44,-17.22 -64.51,-29.92 -16.07,-12.7 -27.2,-28.35 -33.3,-46.86 -6.1,-18.51 -6.82,-37.81 -2.01,-57.84z"/>
  <path id="_1_0" class="fil0" d="M3997.05 4567.38l57.76 -215.49 32.8 8.83 -8.69 32.65c12.41,-12.98 22.89,-21.02 31.29,-23.97 8.39,-3.01 16.87,-3.3 25.4,-1.07 12.28,3.3 23.76,10.62 34.37,21.82l-21.67 30.57c-7.46,-7.68 -15.72,-12.7 -24.61,-15.14 -8.04,-2.08 -15.86,-1.65 -23.46,1.43 -7.61,3.16 -13.92,8.61 -18.94,16.36 -7.54,11.91 -13.35,25.55 -17.51,40.98l-30.21 112.81 -36.52 -9.76z"/>
  <path class="fil0" d="M3592.08 3987.5c-10.1,-7.08 -16.81,-15.12 -20.15,-24.16 -3.33,-8.99 -3.59,-18.82 -0.8,-29.35 4.28,-15.96 13.59,-27.81 27.97,-35.63 14.38,-7.77 31.09,-9.15 50.13,-4.02 19.14,5.13 33.05,14.81 41.72,29.03 8.67,14.22 10.89,29.35 6.61,45.26 -2.7,10.2 -7.78,18.3 -15.12,24.43 -7.35,6.08 -16.97,9.73 -28.93,10.89 12.27,7.98 20.62,17.82 25.02,29.45 4.39,11.63 4.81,24.27 1.16,37.8 -5.02,18.72 -15.86,32.73 -32.52,41.93 -16.71,9.2 -35.85,10.89 -57.48,5.07 -21.63,-5.77 -37.33,-16.87 -47.16,-33.2 -9.83,-16.34 -12.16,-34.11 -7.04,-53.24 3.81,-14.22 10.63,-25.22 20.41,-32.89 9.83,-7.67 21.84,-11.48 36.17,-11.37zm6.82 -47.06c-2.8,10.37 -1.69,19.72 3.22,28.08 4.92,8.41 12.69,14.01 23.37,16.87 10.36,2.75 19.72,1.8 28.07,-2.96 8.41,-4.76 13.85,-11.84 16.39,-21.31 2.65,-9.89 1.43,-19.09 -3.59,-27.65 -5.02,-8.57 -12.58,-14.22 -22.79,-16.92 -10.26,-2.75 -19.67,-1.75 -28.19,3.02 -8.56,4.76 -14.06,11.74 -16.5,20.88zm-35.8 98.88c-2.06,7.67 -2.22,15.6 -0.53,23.74 1.74,8.14 5.65,15.17 11.79,20.99 6.08,5.87 13.32,9.94 21.57,12.16 12.85,3.44 24.59,2.11 35.16,-3.91 10.58,-6.03 17.61,-15.39 20.99,-28.18 3.49,-12.95 2.06,-24.8 -4.28,-35.59 -6.35,-10.78 -16.02,-17.92 -28.98,-21.36 -12.63,-3.38 -24.27,-2.01 -34.84,4.13 -10.58,6.13 -17.5,15.49 -20.89,28.02z"/>
  <path id="_1_1" class="fil0" d="M3742.05 3950.95l6.93 -25.86 141.86 37.96 -5.6 20.94c-17.93,11.1 -37.01,27.18 -57.31,48.11 -20.3,20.94 -37.7,43.41 -52.13,67.41 -10.31,16.87 -19.09,36.06 -26.44,57.48l-27.65 -7.4c4.91,-17.19 13.85,-37.06 26.91,-59.75 13,-22.68 28.61,-43.78 46.79,-63.19 18.19,-19.46 36.17,-35.11 53.98,-46.95l-107.33 -28.76z"/>
  <path class="fil1" d="M4231.35 2580.2l-50.02 153.95 -52.75 -17.14 129.93 -399.89c37.44,-115.22 102.43,-157.86 195.06,-127.77 34.95,11.36 59.9,28.95 74.77,52.99 15,23.97 17.51,51.16 7.61,81.62 -17.07,52.54 -58.35,78.81 -124.02,78.99l-0.78 2.41c61.87,37.11 82.54,87.1 62.11,150 -12.62,38.83 -34.41,64.6 -65.36,77.23 -31.08,12.69 -64.45,13.19 -100.24,1.56 -32.23,-10.47 -57.74,-28.48 -76.3,-53.95zm111.06 -181.21l7.96 -24.49c29.12,8.3 55.73,6.54 79.65,-5.13 23.95,-11.77 40.54,-32.19 49.89,-60.97 7.65,-23.55 7.7,-43.66 0.2,-60.44 -7.5,-16.79 -21.3,-28.44 -41.4,-34.97 -28.36,-9.22 -52.85,-3.29 -73.33,17.71 -20.48,21 -38.99,56.98 -55.52,107.85l-59.2 182.2c-6.09,18.74 -3.59,35.98 7.45,51.48 11.11,15.65 26.51,26.67 46.39,33.13 53.58,17.41 90.1,-4.16 109.79,-64.76 10.54,-32.44 9.7,-61.18 -2.64,-86.25 -12.26,-24.93 -35.41,-43.44 -69.25,-55.36z"/>
  <path class="fil1" d="M3602.34 1226.84l225.15 66.59 14.35 17.1 17.56 247.35 131.16 -110.06c16.8,-14.1 25.81,-28.06 26.93,-41.97 1.21,-13.81 -6.91,-36.14 -24.38,-66.79l28.86 -24.22 86.23 115.61 -274.47 230.31 -11.94 -14.23 -19.94 -287.12 -279.73 -86.48 -11.94 -14.23 267.56 -224.51 84.76 101.01 -27.28 22.89c-33.95,-24.4 -58.97,-37.76 -75.17,-40 -16.2,-2.24 -32.17,3.42 -47.98,16.69l-109.71 92.06z"/>
  <path class="fil2 str0" d="M3710.07 3465.86c-18.02,9.58 -31.04,20.16 -39.08,31.93 -8.05,11.77 -14.17,29.99 -18.21,54.6l-34.57 -8.07c5.53,-41.53 13.97,-71.64 25.27,-90.12 11.3,-18.48 30.99,-35.27 59.39,-50.37l320.32 -170.31 27.31 51.35 -91.95 48.89 121.22 227.99c17.58,33.07 35.88,44.63 54.94,34.5 10.89,-5.79 20.48,-19.04 28.97,-39.69l27.05 14.89c-15.51,39.36 -36.65,66.23 -63.49,80.5 -21.79,11.59 -42.06,12.89 -60.61,3.95 -18.56,-8.93 -37.05,-30.87 -55.46,-65.5l-117.98 -221.89 -116.59 61.99 165.83 311.89 -76.38 40.61 -9.93 -18.67c-15.96,-67.87 -50.86,-152.28 -104.57,-253.31l-27.86 -52.39 -13.62 7.24z"/>
  <path class="fil2 str0" d="M3897.88 2131.88l-4.84 -5.78c-40.89,-7.17 -76.85,-19.19 -107.95,-35.98 -31.02,-16.86 -57.02,-37.79 -78.13,-62.96 -22.99,-27.39 -38.04,-56.39 -45.22,-87.07 -7.18,-30.67 -5.67,-60.21 4.41,-88.76 10.07,-28.56 27.93,-53.52 53.34,-74.85 26.49,-22.23 53.22,-35.94 80.46,-41.36 27.23,-5.41 54.15,-1.99 80.84,10.21 26.69,12.2 51.84,32.29 75.38,60.35 13.64,16.26 24.98,33.46 34.02,51.6 9.04,18.15 16.23,36.44 21.58,54.87 5.34,18.44 9.04,36.57 11.22,54.43 2.12,17.77 3.18,34.45 2.97,49.96l3.88 4.62 22.03 -18.49c7.92,-6.65 13.93,-12.39 18.19,-17.37 4.18,-4.91 6.89,-9.72 7.99,-14.44 1.03,-4.81 0.71,-9.88 -1.03,-15.31 -1.82,-5.36 -4.62,-11.87 -8.54,-19.56l23.69 -19.87 50.14 74.5 -111.98 93.96 -29.22 -34.82c-6.7,-38.81 -17.55,-74.7 -32.41,-107.66 -14.92,-33.04 -33.5,-62.72 -55.87,-89.37 -22.98,-27.39 -45.19,-47.15 -66.76,-59.28 -21.57,-12.13 -41.85,-17.19 -60.6,-15.24 -18.9,1.94 -36.57,9.87 -53.15,23.79 -16.34,13.71 -26.32,29.96 -30.19,48.81 -3.79,18.78 -1.33,39.64 7.53,62.44 8.87,22.8 23.54,46.48 44.1,70.99 24.3,28.96 51.23,53.34 80.76,73.13 29.48,19.7 62.35,36.26 98.67,49.39l29.22 34.82 -111.48 93.54 -64.37 -62.13 23.68 -19.87c8.45,6.55 14.94,10.94 19.26,13.23 4.39,2.22 8.49,3.42 12.33,3.3 3.75,-0.06 8.23,-1.43 13.2,-4.05 4.98,-2.77 12.33,-8.09 21.82,-16.06l21.04 -17.65z"/>
  <g id="_2390764951120">
   <path class="fil1" d="M3541.94 2529.8c14.97,-18.96 29.5,-42.34 43.58,-70.07l83.28 -163.17c-8.86,-34.64 -17.1,-58.91 -24.81,-73 -7.7,-14 -19.49,-21 -35.43,-21 -14.7,0 -28.7,7.27 -41.99,21.8l-12.76 -14c23.92,-26.13 47.48,-39.15 70.87,-39.15 16.3,0 28.88,4.61 37.91,13.82 8.95,9.3 16.48,24.01 22.59,44.3 6.02,20.2 14.62,59.35 25.69,117.29 14.35,75.65 25.52,123.31 33.57,143.15 8.06,19.76 17.63,29.68 28.7,29.68 7.97,0 15.33,-2.74 22.06,-8.24l9.83 15.5c-17.1,13.37 -32.51,20.02 -46.15,20.02 -19.4,0 -33.22,-9.92 -41.55,-29.85 -8.33,-19.93 -19.93,-73.44 -34.81,-160.69l-1.5 0c-29.41,59.7 -58.2,121.8 -86.46,186.39l-52.62 0 0 -12.76z"/>
   <path class="fil0" d="M3425.07 2681.61l62.29 5.8c-9.06,30.9 -29.7,60.11 -61.93,88 -32.23,27.77 -70.74,41.65 -115.4,41.65 -27.89,0 -53.48,-6.4 -76.65,-19.2 -23.3,-12.91 -41.05,-31.5 -53.24,-56.01 -12.19,-24.5 -18.23,-52.39 -18.23,-83.66 0,-40.92 9.54,-80.63 28.49,-119.14 19.07,-38.51 43.7,-67.12 73.88,-85.83 30.3,-18.71 63.02,-28.01 98.26,-28.01 44.9,0 80.76,13.88 107.56,41.65 26.8,27.64 40.2,65.55 40.2,113.47 0,18.35 -1.69,37.06 -4.95,56.37l-277.52 0c-0.96,7.37 -1.45,13.89 -1.45,19.8 0,35.25 8.09,62.05 24.39,80.64 16.18,18.47 36.09,27.77 59.51,27.77 21.97,0 43.7,-7.12 65.07,-21.49 21.24,-14.24 37.9,-34.89 49.73,-61.81zm-186.99 -94.16l211.74 0c0.24,-6.52 0.36,-11.22 0.36,-14.12 0,-31.87 -8.09,-56.37 -24.15,-73.4 -16.17,-17.02 -36.82,-25.47 -62.17,-25.47 -27.52,0 -52.51,9.42 -75.08,28.13 -22.7,18.83 -39.48,47.08 -50.7,84.86z"/>
  </g>
 </g>
</svg>
